<mxfile host="app.diagrams.net" agent="Mozilla/5.0 (Windows NT 10.0; Win64; x64) AppleWebKit/537.36 (KHTML, like Gecko) Chrome/127.0.0.0 Safari/537.36" version="24.7.6">
  <diagram name="Page-1" id="PO6YEovwAHuaW14SgPtq">
    <mxGraphModel dx="880" dy="468" grid="1" gridSize="10" guides="1" tooltips="1" connect="1" arrows="1" fold="1" page="1" pageScale="1" pageWidth="4681" pageHeight="3300" background="none" math="0" shadow="0">
      <root>
        <mxCell id="0" />
        <mxCell id="1" parent="0" />
        <mxCell id="dLCL1BNoXGIihHrT0mXC-1" value="" style="ellipse;fillColor=strokeColor;html=1;" parent="1" vertex="1">
          <mxGeometry x="445" width="40" height="40" as="geometry" />
        </mxCell>
        <mxCell id="dLCL1BNoXGIihHrT0mXC-2" value="" style="endArrow=block;html=1;rounded=0;align=center;verticalAlign=bottom;endFill=0;labelBackgroundColor=none;endSize=8;exitX=0.5;exitY=1;exitDx=0;exitDy=0;entryX=0.5;entryY=0;entryDx=0;entryDy=0;" parent="1" source="dLCL1BNoXGIihHrT0mXC-1" target="dLCL1BNoXGIihHrT0mXC-10" edge="1">
          <mxGeometry x="-0.3254" y="135" relative="1" as="geometry">
            <mxPoint x="540" y="20" as="sourcePoint" />
            <mxPoint x="465" y="120" as="targetPoint" />
            <mxPoint as="offset" />
          </mxGeometry>
        </mxCell>
        <mxCell id="dLCL1BNoXGIihHrT0mXC-3" value="" style="resizable=0;html=1;align=center;verticalAlign=top;labelBackgroundColor=none;" parent="dLCL1BNoXGIihHrT0mXC-2" connectable="0" vertex="1">
          <mxGeometry relative="1" as="geometry">
            <mxPoint x="145" y="10" as="offset" />
          </mxGeometry>
        </mxCell>
        <mxCell id="dLCL1BNoXGIihHrT0mXC-10" value="Displaying Main Page" style="html=1;align=center;verticalAlign=top;rounded=1;absoluteArcSize=1;arcSize=10;dashed=0;whiteSpace=wrap;" parent="1" vertex="1">
          <mxGeometry x="395" y="120" width="140" height="40" as="geometry" />
        </mxCell>
        <mxCell id="dLCL1BNoXGIihHrT0mXC-19" value="Displaying Profile Page" style="html=1;align=center;verticalAlign=top;rounded=1;absoluteArcSize=1;arcSize=10;dashed=0;whiteSpace=wrap;" parent="1" vertex="1">
          <mxGeometry x="395" y="240" width="140" height="40" as="geometry" />
        </mxCell>
        <mxCell id="dLCL1BNoXGIihHrT0mXC-20" value="Clicks Profile" style="endArrow=block;html=1;rounded=0;align=center;verticalAlign=bottom;endFill=0;labelBackgroundColor=none;endSize=8;exitX=0.5;exitY=1;exitDx=0;exitDy=0;" parent="1" source="dLCL1BNoXGIihHrT0mXC-10" edge="1">
          <mxGeometry x="-0.3333" y="75" relative="1" as="geometry">
            <mxPoint x="330" y="330" as="sourcePoint" />
            <mxPoint x="465" y="240" as="targetPoint" />
            <mxPoint as="offset" />
          </mxGeometry>
        </mxCell>
        <mxCell id="dLCL1BNoXGIihHrT0mXC-21" value="Display Profile Page" style="resizable=0;html=1;align=center;verticalAlign=top;labelBackgroundColor=none;" parent="dLCL1BNoXGIihHrT0mXC-20" connectable="0" vertex="1">
          <mxGeometry relative="1" as="geometry">
            <mxPoint x="70" y="-10" as="offset" />
          </mxGeometry>
        </mxCell>
        <mxCell id="dLCL1BNoXGIihHrT0mXC-24" value="Enter Login Details" style="endArrow=block;html=1;rounded=0;align=center;verticalAlign=bottom;endFill=0;labelBackgroundColor=none;endSize=8;exitX=0.5;exitY=1;exitDx=0;exitDy=0;" parent="1" source="dLCL1BNoXGIihHrT0mXC-19" edge="1">
          <mxGeometry x="-0.3333" y="75" relative="1" as="geometry">
            <mxPoint x="412.5" y="380" as="sourcePoint" />
            <mxPoint x="465" y="360" as="targetPoint" />
            <mxPoint as="offset" />
          </mxGeometry>
        </mxCell>
        <mxCell id="dLCL1BNoXGIihHrT0mXC-25" value="Verify Credentials" style="resizable=0;html=1;align=center;verticalAlign=top;labelBackgroundColor=none;" parent="dLCL1BNoXGIihHrT0mXC-24" connectable="0" vertex="1">
          <mxGeometry relative="1" as="geometry">
            <mxPoint x="70" y="-10" as="offset" />
          </mxGeometry>
        </mxCell>
        <mxCell id="dLCL1BNoXGIihHrT0mXC-26" value="Verifying Credentials" style="html=1;align=center;verticalAlign=top;rounded=1;absoluteArcSize=1;arcSize=10;dashed=0;whiteSpace=wrap;" parent="1" vertex="1">
          <mxGeometry x="395" y="360" width="140" height="40" as="geometry" />
        </mxCell>
        <mxCell id="dLCL1BNoXGIihHrT0mXC-33" value="Invalid Credentials" style="endArrow=block;html=1;rounded=0;align=center;verticalAlign=bottom;endFill=0;labelBackgroundColor=none;endSize=8;exitX=1;exitY=0.5;exitDx=0;exitDy=0;entryX=1;entryY=0.5;entryDx=0;entryDy=0;" parent="1" source="dLCL1BNoXGIihHrT0mXC-26" target="dLCL1BNoXGIihHrT0mXC-19" edge="1">
          <mxGeometry x="0.0976" y="-80" relative="1" as="geometry">
            <mxPoint x="570" y="490" as="sourcePoint" />
            <mxPoint x="680" y="340" as="targetPoint" />
            <Array as="points">
              <mxPoint x="680" y="380" />
              <mxPoint x="680" y="260" />
            </Array>
            <mxPoint as="offset" />
          </mxGeometry>
        </mxCell>
        <mxCell id="dLCL1BNoXGIihHrT0mXC-34" value="Display Error Message &lt;br&gt;&amp;amp; Redirect to Profile Page" style="resizable=0;html=1;align=center;verticalAlign=top;labelBackgroundColor=none;" parent="dLCL1BNoXGIihHrT0mXC-33" connectable="0" vertex="1">
          <mxGeometry relative="1" as="geometry">
            <mxPoint x="90" as="offset" />
          </mxGeometry>
        </mxCell>
        <mxCell id="IgnOkryo6ripSMt3iWWQ-1" value="" style="ellipse;html=1;shape=endState;fillColor=strokeColor;" parent="1" vertex="1">
          <mxGeometry x="445" y="600" width="40" height="40" as="geometry" />
        </mxCell>
        <mxCell id="6Mah2j8GieXK6h-RwKKI-6" value="" style="endArrow=none;html=1;endSize=12;startArrow=none;startSize=14;startFill=0;edgeStyle=orthogonalEdgeStyle;align=center;verticalAlign=bottom;endFill=0;rounded=0;" edge="1" parent="1">
          <mxGeometry y="3" relative="1" as="geometry">
            <mxPoint x="480" y="190" as="sourcePoint" />
            <mxPoint x="605" y="190" as="targetPoint" />
          </mxGeometry>
        </mxCell>
        <mxCell id="6Mah2j8GieXK6h-RwKKI-7" value="" style="endArrow=none;html=1;endSize=12;startArrow=none;startSize=14;startFill=0;edgeStyle=orthogonalEdgeStyle;align=center;verticalAlign=bottom;endFill=0;rounded=0;" edge="1" parent="1">
          <mxGeometry y="3" relative="1" as="geometry">
            <mxPoint x="480" y="310" as="sourcePoint" />
            <mxPoint x="605" y="310" as="targetPoint" />
          </mxGeometry>
        </mxCell>
        <mxCell id="6Mah2j8GieXK6h-RwKKI-8" value="" style="endArrow=none;html=1;endSize=12;startArrow=none;startSize=14;startFill=0;edgeStyle=orthogonalEdgeStyle;align=center;verticalAlign=bottom;endFill=0;rounded=0;" edge="1" parent="1">
          <mxGeometry y="3" relative="1" as="geometry">
            <mxPoint x="710" y="310" as="sourcePoint" />
            <mxPoint x="835" y="310" as="targetPoint" />
          </mxGeometry>
        </mxCell>
        <mxCell id="6Mah2j8GieXK6h-RwKKI-9" value="" style="endArrow=none;html=1;endSize=12;startArrow=none;startSize=14;startFill=0;edgeStyle=orthogonalEdgeStyle;align=center;verticalAlign=bottom;endFill=0;rounded=0;" edge="1" parent="1">
          <mxGeometry y="3" relative="1" as="geometry">
            <mxPoint x="470" y="430" as="sourcePoint" />
            <mxPoint x="595" y="430" as="targetPoint" />
          </mxGeometry>
        </mxCell>
        <mxCell id="6Mah2j8GieXK6h-RwKKI-14" value="Valid Credentials" style="endArrow=block;html=1;rounded=0;align=center;verticalAlign=bottom;endFill=0;labelBackgroundColor=none;endSize=8;exitX=0.5;exitY=1;exitDx=0;exitDy=0;" edge="1" parent="1" source="dLCL1BNoXGIihHrT0mXC-26">
          <mxGeometry x="-0.5" y="55" relative="1" as="geometry">
            <mxPoint x="485" y="480" as="sourcePoint" />
            <mxPoint x="465" y="480" as="targetPoint" />
            <mxPoint as="offset" />
          </mxGeometry>
        </mxCell>
        <mxCell id="6Mah2j8GieXK6h-RwKKI-15" value="Display Home Page" style="resizable=0;html=1;align=center;verticalAlign=top;labelBackgroundColor=none;" connectable="0" vertex="1" parent="6Mah2j8GieXK6h-RwKKI-14">
          <mxGeometry relative="1" as="geometry">
            <mxPoint x="65" as="offset" />
          </mxGeometry>
        </mxCell>
        <mxCell id="6Mah2j8GieXK6h-RwKKI-16" value="Displaying&lt;br&gt;Home Page" style="html=1;align=center;verticalAlign=top;rounded=1;absoluteArcSize=1;arcSize=10;dashed=0;whiteSpace=wrap;" vertex="1" parent="1">
          <mxGeometry x="395" y="480" width="140" height="40" as="geometry" />
        </mxCell>
        <mxCell id="6Mah2j8GieXK6h-RwKKI-17" value="" style="endArrow=block;html=1;rounded=0;align=center;verticalAlign=bottom;endFill=0;labelBackgroundColor=none;endSize=8;exitX=0.5;exitY=1;exitDx=0;exitDy=0;" edge="1" parent="1" source="6Mah2j8GieXK6h-RwKKI-16">
          <mxGeometry relative="1" as="geometry">
            <mxPoint x="370" y="560" as="sourcePoint" />
            <mxPoint x="465" y="600" as="targetPoint" />
          </mxGeometry>
        </mxCell>
        <mxCell id="6Mah2j8GieXK6h-RwKKI-18" value="" style="resizable=0;html=1;align=center;verticalAlign=top;labelBackgroundColor=none;" connectable="0" vertex="1" parent="6Mah2j8GieXK6h-RwKKI-17">
          <mxGeometry relative="1" as="geometry" />
        </mxCell>
      </root>
    </mxGraphModel>
  </diagram>
</mxfile>
